<svg width="105" height="144" viewBox="0 0 105 144" fill="none" xmlns="http://www.w3.org/2000/svg">
<path d="M0 116L17.7681 2.76519C17.9853 1.37647 19.0698 0.281723 20.4611 0.0463197C21.8524 -0.189083 23.2388 0.488166 23.9041 1.7276L42.2794 35.8613L49.6037 21.9725C50.171 20.8986 51.2892 20.2261 52.5077 20.2261C53.7262 20.2261 54.8444 20.8986 55.4117 21.9725L105 116H0V116Z" fill="#FFA000"/>
<path d="M61 71.9759L42.0063 36L0 116L61 71.9759Z" fill="#F57C00"/>
<path d="M105 116.318L91.3911 32.7136C91.1855 31.513 90.3224 30.5267 89.1536 30.1549C87.9848 29.7831 86.7056 30.0926 85.8376 30.9533L0 116.317L47.4961 142.76C50.4787 144.413 54.1111 144.413 57.0937 142.76L105 116.317V116.318Z" fill="#FFCA28"/>
<path d="M91.3984 32.3215C91.1929 31.1097 90.3303 30.1142 89.1622 29.739C87.994 29.3638 86.7155 29.6761 85.848 30.5449L68.8205 47.6593L55.4309 22.1038C54.864 21.0233 53.7464 20.3468 52.5286 20.3468C51.3108 20.3468 50.1932 21.0233 49.6262 22.1038L42.3059 36.0772L23.9398 1.73624C23.2739 0.488935 21.8865 -0.191333 20.4943 0.0472682C19.1022 0.28587 18.0219 1.39004 17.8073 2.78831L0.0572416 116.704H0L0.0572416 116.77L0.52453 117L85.8232 31.3844C86.6903 30.5109 87.972 30.1969 89.1432 30.571C90.3145 30.9451 91.1786 31.9445 91.382 33.1598L104.869 116.786L105 116.704L91.3985 32.3212L91.3984 32.3215ZM0.213005 116.548L17.8155 3.59395C18.03 2.19567 19.1127 1.09151 20.5037 0.852906C21.8947 0.614305 23.2821 1.29435 23.9492 2.54188L42.3133 36.8834L49.6336 22.91C50.2005 21.8295 51.3181 21.153 52.5359 21.153C53.7538 21.153 54.8713 21.8295 55.4383 22.91L68.5562 47.9223L0.212235 116.548H0.213005Z" fill="white" fill-opacity="0.2"/>
<path opacity="0.2" d="M57.0938 142C54.1112 143.629 50.4788 143.629 47.4962 142L0.114876 116.024L0 116.738L47.4961 142.779C50.4787 144.407 54.1111 144.407 57.0937 142.779L105 116.738L104.877 116L57.0938 142V142Z" fill="#A52714"/>
</svg>
